<svg width="15" height="15" viewBox="0 0 15 15" fill="none" xmlns="http://www.w3.org/2000/svg">
<path d="M7.35551 13.485V7.96875" stroke="#CA8A04" stroke-width="1.22583" stroke-linecap="round" stroke-linejoin="round"/>
<path d="M9.29834 1.35478C9.45099 1.26942 9.62297 1.22461 9.79787 1.22461C9.97276 1.22461 10.1447 1.26942 10.2974 1.35478L12.8716 2.80126C13.054 2.90435 13.2056 3.054 13.3112 3.23492C13.4167 3.41583 13.4723 3.62152 13.4723 3.83096C13.4723 4.0404 13.4167 4.24609 13.3112 4.427C13.2056 4.60792 13.054 4.75757 12.8716 4.86066L5.40632 9.06527C5.25321 9.1526 5.07999 9.19853 4.90373 9.19853C4.72747 9.19853 4.55424 9.1526 4.40114 9.06527L1.83915 7.61879C1.65683 7.51569 1.50516 7.36604 1.39963 7.18513C1.29409 7.00422 1.23849 6.79853 1.23849 6.58908C1.23849 6.37964 1.29409 6.17395 1.39963 5.99304C1.50516 5.81213 1.65683 5.66248 1.83915 5.55938L9.29834 1.35478Z" stroke="#CA8A04" stroke-width="1.22583" stroke-linecap="round" stroke-linejoin="round"/>
<path d="M12.2585 7.96875V10.3407C12.2587 10.5721 12.1954 10.799 12.0754 10.9968C11.9555 11.1947 11.7834 11.3557 11.5782 11.4624L7.90067 13.3502C7.73217 13.4377 7.54506 13.4834 7.35517 13.4834C7.16528 13.4834 6.97817 13.4377 6.80967 13.3502L3.13217 11.4624C2.9269 11.3557 2.75488 11.1947 2.6349 10.9968C2.51492 10.799 2.4516 10.5721 2.45184 10.3407V7.96875" stroke="#CA8A04" stroke-width="1.22583" stroke-linecap="round" stroke-linejoin="round"/>
<path d="M12.8716 7.61984C13.054 7.51675 13.2056 7.3671 13.3112 7.18619C13.4167 7.00527 13.4723 6.79958 13.4723 6.59014C13.4723 6.3807 13.4167 6.17501 13.3112 5.9941C13.2056 5.81318 13.054 5.66353 12.8716 5.56044L5.41245 1.3497C5.26037 1.26261 5.08817 1.2168 4.91292 1.2168C4.73767 1.2168 4.56547 1.26261 4.4134 1.3497L1.83915 2.80232C1.65683 2.90541 1.50516 3.05506 1.39963 3.23597C1.29409 3.41688 1.23849 3.62257 1.23849 3.83202C1.23849 4.04146 1.29409 4.24715 1.39963 4.42806C1.50516 4.60897 1.65683 4.75862 1.83915 4.86172L9.30447 9.06632C9.45647 9.15365 9.6287 9.19961 9.804 9.19961C9.97929 9.19961 10.1515 9.15365 10.3035 9.06632L12.8716 7.61984Z" stroke="#CA8A04" stroke-width="1.22583" stroke-linecap="round" stroke-linejoin="round"/>
</svg>
