<svg width="15" height="15" viewBox="0 0 15 15" fill="none" xmlns="http://www.w3.org/2000/svg">
<path d="M9.80775 6.12891C9.80775 6.77913 9.54945 7.40272 9.08968 7.8625C8.6299 8.32227 8.00631 8.58057 7.35609 8.58057C6.70586 8.58057 6.08227 8.32227 5.6225 7.8625C5.16272 7.40272 4.90442 6.77913 4.90442 6.12891" stroke="#4170F1" stroke-width="1.22583" stroke-linecap="round" stroke-linejoin="round"/>
<path d="M1.90239 3.69922H12.8086" stroke="#4170F1" stroke-width="1.22583" stroke-linecap="round" stroke-linejoin="round"/>
<path d="M2.08471 3.35154C1.92556 3.56373 1.83954 3.82181 1.83954 4.08704V12.2591C1.83954 12.5842 1.96869 12.896 2.19858 13.1259C2.42847 13.3557 2.74026 13.4849 3.06537 13.4849H11.6462C11.9713 13.4849 12.2831 13.3557 12.513 13.1259C12.7429 12.896 12.872 12.5842 12.872 12.2591V4.08704C12.872 3.82181 12.786 3.56373 12.6269 3.35154L11.401 1.7169C11.2869 1.56465 11.1388 1.44108 10.9686 1.35598C10.7984 1.27087 10.6107 1.22656 10.4204 1.22656H4.29121C4.1009 1.22656 3.91321 1.27087 3.743 1.35598C3.57278 1.44108 3.42472 1.56465 3.31054 1.7169L2.08471 3.35154Z" stroke="#4170F1" stroke-width="1.22583" stroke-linecap="round" stroke-linejoin="round"/>
</svg>
