<svg width="14" height="14" viewBox="0 0 14 14" fill="none" xmlns="http://www.w3.org/2000/svg">
<g clip-path="url(#clip0_3726_4806)">
<path d="M5.98964 12.25C6.09204 12.4273 6.23932 12.5746 6.41667 12.677C6.59401 12.7794 6.79519 12.8333 6.99997 12.8333C7.20476 12.8333 7.40593 12.7794 7.58328 12.677C7.76063 12.5746 7.90791 12.4273 8.01031 12.25" stroke="#4170F1" stroke-width="1.16667" stroke-linecap="round" stroke-linejoin="round"/>
<path d="M12.8333 4.66797C12.8333 3.3263 12.3667 2.15964 11.6667 1.16797" stroke="#4170F1" stroke-width="1.16667" stroke-linecap="round" stroke-linejoin="round"/>
<path d="M1.90283 8.94147C1.82663 9.02499 1.77634 9.12886 1.75808 9.24044C1.73983 9.35202 1.75439 9.4665 1.8 9.56995C1.84561 9.67341 1.9203 9.76138 2.01498 9.82316C2.10967 9.88495 2.22027 9.91789 2.33333 9.91797H11.6667C11.7797 9.91801 11.8903 9.8852 11.9851 9.82353C12.0798 9.76186 12.1546 9.67399 12.2004 9.5706C12.2461 9.46721 12.2608 9.35277 12.2427 9.24118C12.2246 9.12959 12.1744 9.02567 12.0983 8.94205C11.3225 8.1423 10.5 7.29239 10.5 4.66797C10.5 3.73971 10.1313 2.84947 9.47488 2.19309C8.8185 1.53672 7.92826 1.16797 7 1.16797C6.07174 1.16797 5.18151 1.53672 4.52513 2.19309C3.86875 2.84947 3.5 3.73971 3.5 4.66797C3.5 7.29239 2.67692 8.1423 1.90283 8.94147Z" stroke="#4170F1" stroke-width="1.16667" stroke-linecap="round" stroke-linejoin="round"/>
<path d="M2.33332 1.16797C1.63332 2.15964 1.16666 3.3263 1.16666 4.66797" stroke="#4170F1" stroke-width="1.16667" stroke-linecap="round" stroke-linejoin="round"/>
</g>
<defs>
<clipPath id="clip0_3726_4806">
<rect width="14" height="14" fill="white"/>
</clipPath>
</defs>
</svg>
