<svg width="15" height="15" viewBox="0 0 15 15" fill="none" xmlns="http://www.w3.org/2000/svg">
<path d="M1.83887 6.74281H3.67762C4.00274 6.74281 4.31453 6.87196 4.54442 7.10185C4.77431 7.33174 4.90346 7.64354 4.90346 7.96865V9.8074C4.90346 10.1325 4.77431 10.4443 4.54442 10.6742C4.31453 10.9041 4.00274 11.0332 3.67762 11.0332H3.06471C2.7396 11.0332 2.4278 10.9041 2.19791 10.6742C1.96802 10.4443 1.83887 10.1325 1.83887 9.8074V6.74281ZM1.83887 6.74281C1.83887 6.01841 1.98156 5.3011 2.25877 4.63184C2.53599 3.96257 2.94232 3.35447 3.45455 2.84223C3.96678 2.33 4.57489 1.92368 5.24415 1.64646C5.91341 1.36924 6.63072 1.22656 7.35513 1.22656C8.07953 1.22656 8.79684 1.36924 9.4661 1.64646C10.1354 1.92368 10.7435 2.33 11.2557 2.84223C11.7679 3.35447 12.1743 3.96257 12.4515 4.63184C12.7287 5.3011 12.8714 6.01841 12.8714 6.74281M12.8714 6.74281V9.8074C12.8714 10.1325 12.7422 10.4443 12.5123 10.6742C12.2824 10.9041 11.9707 11.0332 11.6455 11.0332H11.0326C10.7075 11.0332 10.3957 10.9041 10.1658 10.6742C9.93594 10.4443 9.80679 10.1325 9.80679 9.8074V7.96865C9.80679 7.64354 9.93594 7.33174 10.1658 7.10185C10.3957 6.87196 10.7075 6.74281 11.0326 6.74281H12.8714Z" stroke="#8174FA" stroke-width="1.22583" stroke-linecap="round" stroke-linejoin="round"/>
<path d="M12.8718 9.80664V11.0325C12.8718 11.6827 12.6135 12.3063 12.1537 12.7661C11.6939 13.2258 11.0703 13.4841 10.4201 13.4841H7.35551" stroke="#8174FA" stroke-width="1.22583" stroke-linecap="round" stroke-linejoin="round"/>
</svg>
