<svg width="15" height="15" viewBox="0 0 15 15" fill="none" xmlns="http://www.w3.org/2000/svg">
<path d="M6.74255 6.29439L4.29089 2.04688" stroke="#4B5563" stroke-width="1.22583" stroke-linecap="round" stroke-linejoin="round"/>
<path d="M6.74255 8.41602L4.29089 12.6635" stroke="#4B5563" stroke-width="1.22583" stroke-linecap="round" stroke-linejoin="round"/>
<path d="M7.35547 13.4856V12.2598" stroke="#4B5563" stroke-width="1.22583" stroke-linecap="round" stroke-linejoin="round"/>
<path d="M7.35547 1.22656V2.4524" stroke="#4B5563" stroke-width="1.22583" stroke-linecap="round" stroke-linejoin="round"/>
<path d="M8.5813 7.35547H13.4846" stroke="#4B5563" stroke-width="1.22583" stroke-linecap="round" stroke-linejoin="round"/>
<path d="M10.4201 12.6639L9.80714 11.6035" stroke="#4B5563" stroke-width="1.22583" stroke-linecap="round" stroke-linejoin="round"/>
<path d="M10.4201 2.04688L9.80714 3.10722" stroke="#4B5563" stroke-width="1.22583" stroke-linecap="round" stroke-linejoin="round"/>
<path d="M1.2263 7.35547H2.45214" stroke="#4B5563" stroke-width="1.22583" stroke-linecap="round" stroke-linejoin="round"/>
<path d="M12.6631 10.4196L11.6028 9.80664" stroke="#4B5563" stroke-width="1.22583" stroke-linecap="round" stroke-linejoin="round"/>
<path d="M12.6631 4.29102L11.6028 4.90393" stroke="#4B5563" stroke-width="1.22583" stroke-linecap="round" stroke-linejoin="round"/>
<path d="M2.04752 10.4196L3.10786 9.80664" stroke="#4B5563" stroke-width="1.22583" stroke-linecap="round" stroke-linejoin="round"/>
<path d="M2.04752 4.29102L3.10786 4.90393" stroke="#4B5563" stroke-width="1.22583" stroke-linecap="round" stroke-linejoin="round"/>
<path d="M7.35547 8.58057C8.03248 8.58057 8.58131 8.03175 8.58131 7.35474C8.58131 6.67773 8.03248 6.12891 7.35547 6.12891C6.67846 6.12891 6.12964 6.67773 6.12964 7.35474C6.12964 8.03175 6.67846 8.58057 7.35547 8.58057Z" stroke="#4B5563" stroke-width="1.22583" stroke-linecap="round" stroke-linejoin="round"/>
<path d="M7.35547 12.2578C10.0635 12.2578 12.2588 10.0625 12.2588 7.35451C12.2588 4.64647 10.0635 2.45117 7.35547 2.45117C4.64743 2.45117 2.45213 4.64647 2.45213 7.35451C2.45213 10.0625 4.64743 12.2578 7.35547 12.2578Z" stroke="#4B5563" stroke-width="1.22583" stroke-linecap="round" stroke-linejoin="round"/>
</svg>
