<svg width="17" height="17" viewBox="0 0 17 17" fill="none" xmlns="http://www.w3.org/2000/svg">
<path d="M14.0999 4.22949H2.81991C2.04119 4.22949 1.40991 4.86077 1.40991 5.63949V11.2795C1.40991 12.0582 2.04119 12.6895 2.81991 12.6895H14.0999C14.8786 12.6895 15.5099 12.0582 15.5099 11.2795V5.63949C15.5099 4.86077 14.8786 4.22949 14.0999 4.22949Z" stroke="#0052B5" stroke-width="1.41" stroke-linecap="round" stroke-linejoin="round"/>
<path d="M8.46005 9.8698C9.23877 9.8698 9.87005 9.23853 9.87005 8.4598C9.87005 7.68108 9.23877 7.0498 8.46005 7.0498C7.68133 7.0498 7.05005 7.68108 7.05005 8.4598C7.05005 9.23853 7.68133 9.8698 8.46005 9.8698Z" stroke="#0052B5" stroke-width="1.41" stroke-linecap="round" stroke-linejoin="round"/>
<path d="M4.22998 8.45996H4.23703M12.69 8.45996H12.697" stroke="#0052B5" stroke-width="1.41" stroke-linecap="round" stroke-linejoin="round"/>
</svg>
