<svg width="17" height="17" viewBox="0 0 17 17" fill="none" xmlns="http://www.w3.org/2000/svg">
<path d="M13.395 4.93523V2.82023C13.395 2.63326 13.3207 2.45394 13.1885 2.32172C13.0563 2.18951 12.877 2.11523 12.69 2.11523H3.52499C3.15104 2.11523 2.7924 2.26379 2.52797 2.52821C2.26354 2.79264 2.11499 3.15128 2.11499 3.52523C2.11499 3.89919 2.26354 4.25783 2.52797 4.52225C2.7924 4.78668 3.15104 4.93523 3.52499 4.93523H14.1C14.287 4.93523 14.4663 5.00951 14.5985 5.14172C14.7307 5.27394 14.805 5.45326 14.805 5.64023V8.46023M14.805 8.46023H12.69C12.316 8.46023 11.9574 8.60879 11.693 8.87321C11.4285 9.13764 11.28 9.49628 11.28 9.87023C11.28 10.2442 11.4285 10.6028 11.693 10.8673C11.9574 11.1317 12.316 11.2802 12.69 11.2802H14.805C14.992 11.2802 15.1713 11.206 15.3035 11.0737C15.4357 10.9415 15.51 10.7622 15.51 10.5752V9.16523C15.51 8.97826 15.4357 8.79894 15.3035 8.66672C15.1713 8.53451 14.992 8.46023 14.805 8.46023Z" stroke="#0052B5" stroke-width="1.41" stroke-linecap="round" stroke-linejoin="round"/>
<path d="M2.11499 3.52539V13.3954C2.11499 13.7693 2.26354 14.128 2.52797 14.3924C2.7924 14.6568 3.15103 14.8054 3.52499 14.8054H14.1C14.287 14.8054 14.4663 14.7311 14.5985 14.5989C14.7307 14.4667 14.805 14.2874 14.805 14.1004V11.2804" stroke="#0052B5" stroke-width="1.41" stroke-linecap="round" stroke-linejoin="round"/>
</svg>
