<svg width="14" height="14" viewBox="0 0 14 14" fill="none" xmlns="http://www.w3.org/2000/svg">
<path d="M12.8339 9.91667C12.8339 10.2261 12.711 10.5228 12.4922 10.7416C12.2734 10.9604 11.9767 11.0833 11.6672 11.0833H3.98357C3.67418 11.0834 3.37748 11.2064 3.15874 11.4252L1.87424 12.7097C1.81631 12.7676 1.74252 12.807 1.66219 12.823C1.58185 12.839 1.49859 12.8308 1.42292 12.7994C1.34724 12.7681 1.28256 12.715 1.23705 12.6469C1.19154 12.5788 1.16725 12.4987 1.16724 12.4168V2.91667C1.16724 2.60725 1.29015 2.3105 1.50895 2.09171C1.72774 1.87292 2.02448 1.75 2.3339 1.75H11.6672C11.9767 1.75 12.2734 1.87292 12.4922 2.09171C12.711 2.3105 12.8339 2.60725 12.8339 2.91667V9.91667Z" stroke="#111827" stroke-width="1.16667" stroke-linecap="round" stroke-linejoin="round"/>
<path d="M4.08276 6.41797H9.9161" stroke="#111827" stroke-width="1.16667" stroke-linecap="round" stroke-linejoin="round"/>
<path d="M4.08276 8.75H7.58276" stroke="#111827" stroke-width="1.16667" stroke-linecap="round" stroke-linejoin="round"/>
<path d="M4.08276 4.08203H8.74943" stroke="#111827" stroke-width="1.16667" stroke-linecap="round" stroke-linejoin="round"/>
</svg>
