<svg width="15" height="15" viewBox="0 0 15 15" fill="none" xmlns="http://www.w3.org/2000/svg">
<path d="M8.5813 10.4199H3.06505" stroke="#0052B5" stroke-width="1.22583" stroke-linecap="round" stroke-linejoin="round"/>
<path d="M11.6459 4.29102H6.12964" stroke="#0052B5" stroke-width="1.22583" stroke-linecap="round" stroke-linejoin="round"/>
<path d="M10.42 12.2595C11.4356 12.2595 12.2588 11.4363 12.2588 10.4208C12.2588 9.40527 11.4356 8.58203 10.42 8.58203C9.40454 8.58203 8.5813 9.40527 8.5813 10.4208C8.5813 11.4363 9.40454 12.2595 10.42 12.2595Z" stroke="#0052B5" stroke-width="1.22583" stroke-linecap="round" stroke-linejoin="round"/>
<path d="M4.29088 6.12867C5.3064 6.12867 6.12963 5.30544 6.12963 4.28992C6.12963 3.27441 5.3064 2.45117 4.29088 2.45117C3.27537 2.45117 2.45213 3.27441 2.45213 4.28992C2.45213 5.30544 3.27537 6.12867 4.29088 6.12867Z" stroke="#0052B5" stroke-width="1.22583" stroke-linecap="round" stroke-linejoin="round"/>
</svg>
