<svg width="10" height="10" viewBox="0 0 10 10" fill="none" xmlns="http://www.w3.org/2000/svg">
<g clip-path="url(#clip0_2221_5213)">
<path d="M5.41699 8.75H8.75033" stroke="#0052B5" stroke-width="0.833333" stroke-linecap="round" stroke-linejoin="round"/>
<path d="M6.25 2.08203L7.91667 3.7487" stroke="#0052B5" stroke-width="0.833333" stroke-linecap="round" stroke-linejoin="round"/>
<path d="M8.82215 2.83719C9.04244 2.61695 9.16623 2.31822 9.16626 2.00671C9.1663 1.69521 9.0426 1.39644 8.82236 1.17615C8.60212 0.955853 8.30338 0.83207 7.99188 0.832031C7.68037 0.831992 7.38161 0.9557 7.16131 1.17594L1.60048 6.73802C1.50374 6.83448 1.43219 6.95324 1.39215 7.08386L0.84173 8.89719C0.830962 8.93322 0.830149 8.9715 0.839377 9.00796C0.848605 9.04442 0.867531 9.0777 0.894146 9.10427C0.920761 9.13085 0.954072 9.14972 0.990546 9.15889C1.02702 9.16806 1.0653 9.16718 1.10131 9.15636L2.91506 8.60636C3.04555 8.56667 3.1643 8.49556 3.2609 8.39927L8.82215 2.83719Z" stroke="#0052B5" stroke-width="0.833333" stroke-linecap="round" stroke-linejoin="round"/>
</g>
<defs>
<clipPath id="clip0_2221_5213">
<rect width="10" height="10" fill="white"/>
</clipPath>
</defs>
</svg>
