<svg width="15" height="15" viewBox="0 0 15 15" fill="none" xmlns="http://www.w3.org/2000/svg">
<path d="M12.2588 7.96892C12.2588 11.0335 10.1136 12.5658 7.56386 13.4545C7.43034 13.4998 7.28531 13.4976 7.1532 13.4484C4.59734 12.5658 2.45213 11.0335 2.45213 7.96892V3.6785C2.45213 3.51595 2.51671 3.36005 2.63165 3.24511C2.7466 3.13016 2.90249 3.06559 3.06505 3.06559C4.29088 3.06559 5.82317 2.33009 6.88965 1.39845C7.0195 1.28752 7.18468 1.22656 7.35547 1.22656C7.52625 1.22656 7.69143 1.28752 7.82128 1.39845C8.89389 2.33622 10.42 3.06559 11.6459 3.06559C11.8084 3.06559 11.9643 3.13016 12.0793 3.24511C12.1942 3.36005 12.2588 3.51595 12.2588 3.6785V7.96892Z" stroke="#0052B5" stroke-width="1.22583" stroke-linecap="round" stroke-linejoin="round"/>
<path d="M5.51672 7.35474L6.74255 8.58057L9.19422 6.12891" stroke="#0052B5" stroke-width="1.22583" stroke-linecap="round" stroke-linejoin="round"/>
</svg>
