<svg width="15" height="15" viewBox="0 0 15 15" fill="none" xmlns="http://www.w3.org/2000/svg">
<path d="M6.29344 12.8711C6.40104 13.0574 6.55578 13.2122 6.74212 13.3197C6.92847 13.4273 7.13985 13.484 7.35501 13.484C7.57018 13.484 7.78156 13.4273 7.9679 13.3197C8.15425 13.2122 8.30899 13.0574 8.41659 12.8711" stroke="#0052B5" stroke-width="1.22583" stroke-linecap="round" stroke-linejoin="round"/>
<path d="M13.4842 4.90406C13.4842 3.49435 12.9938 2.26852 12.2583 1.22656" stroke="#0052B5" stroke-width="1.22583" stroke-linecap="round" stroke-linejoin="round"/>
<path d="M1.99935 9.39429C1.91928 9.48205 1.86644 9.59118 1.84725 9.70842C1.82807 9.82566 1.84337 9.94594 1.89129 10.0546C1.93922 10.1633 2.01769 10.2558 2.11718 10.3207C2.21667 10.3856 2.33288 10.4202 2.45168 10.4203H12.2583C12.3771 10.4204 12.4934 10.3859 12.5929 10.3211C12.6925 10.2563 12.771 10.164 12.8191 10.0553C12.8671 9.9467 12.8826 9.82645 12.8636 9.7092C12.8445 9.59195 12.7918 9.48276 12.7119 9.3949C11.8967 8.55459 11.0325 7.66158 11.0325 4.90406C11.0325 3.92873 10.6451 2.99334 9.9554 2.30368C9.26573 1.61401 8.33035 1.22656 7.35501 1.22656C6.37968 1.22656 5.44429 1.61401 4.75463 2.30368C4.06496 2.99334 3.67751 3.92873 3.67751 4.90406C3.67751 7.66158 2.81269 8.55459 1.99935 9.39429Z" stroke="#0052B5" stroke-width="1.22583" stroke-linecap="round" stroke-linejoin="round"/>
<path d="M2.45168 1.22656C1.71618 2.26852 1.22585 3.49435 1.22585 4.90406" stroke="#0052B5" stroke-width="1.22583" stroke-linecap="round" stroke-linejoin="round"/>
</svg>
