<svg width="14" height="14" viewBox="0 0 14 14" fill="none" xmlns="http://www.w3.org/2000/svg">
<path d="M10.5 4.66699C11.4665 4.66699 12.25 3.88349 12.25 2.91699C12.25 1.95049 11.4665 1.16699 10.5 1.16699C9.5335 1.16699 8.75 1.95049 8.75 2.91699C8.75 3.88349 9.5335 4.66699 10.5 4.66699Z" stroke="#6B7280" stroke-width="1.16667" stroke-linecap="round" stroke-linejoin="round"/>
<path d="M3.5 8.75C4.4665 8.75 5.25 7.9665 5.25 7C5.25 6.0335 4.4665 5.25 3.5 5.25C2.5335 5.25 1.75 6.0335 1.75 7C1.75 7.9665 2.5335 8.75 3.5 8.75Z" stroke="#6B7280" stroke-width="1.16667" stroke-linecap="round" stroke-linejoin="round"/>
<path d="M10.5 12.833C11.4665 12.833 12.25 12.0495 12.25 11.083C12.25 10.1165 11.4665 9.33301 10.5 9.33301C9.5335 9.33301 8.75 10.1165 8.75 11.083C8.75 12.0495 9.5335 12.833 10.5 12.833Z" stroke="#6B7280" stroke-width="1.16667" stroke-linecap="round" stroke-linejoin="round"/>
<path d="M5.01074 7.88086L8.99491 10.2025" stroke="#6B7280" stroke-width="1.16667" stroke-linecap="round" stroke-linejoin="round"/>
<path d="M8.98908 3.79688L5.01074 6.11854" stroke="#6B7280" stroke-width="1.16667" stroke-linecap="round" stroke-linejoin="round"/>
</svg>
