<svg width="14" height="14" viewBox="0 0 14 14" fill="none" xmlns="http://www.w3.org/2000/svg">
<path d="M2.33325 1.1665V12.8332L3.49992 12.2498L4.66659 12.8332L5.83325 12.2498L6.99992 12.8332L8.16659 12.2498L9.33325 12.8332L10.4999 12.2498L11.6666 12.8332V1.1665L10.4999 1.74984L9.33325 1.1665L8.16659 1.74984L6.99992 1.1665L5.83325 1.74984L4.66659 1.1665L3.49992 1.74984L2.33325 1.1665Z" stroke="#9CA3AF" stroke-width="1.16667" stroke-linecap="round" stroke-linejoin="round"/>
<path d="M9.33341 4.6665H5.83341C5.524 4.6665 5.22725 4.78942 5.00846 5.00821C4.78966 5.22701 4.66675 5.52375 4.66675 5.83317C4.66675 6.14259 4.78966 6.43934 5.00846 6.65813C5.22725 6.87692 5.524 6.99984 5.83341 6.99984H8.16675C8.47617 6.99984 8.77291 7.12275 8.99171 7.34155C9.2105 7.56034 9.33341 7.85708 9.33341 8.1665C9.33341 8.47592 9.2105 8.77267 8.99171 8.99146C8.77291 9.21025 8.47617 9.33317 8.16675 9.33317H4.66675" stroke="#9CA3AF" stroke-width="1.16667" stroke-linecap="round" stroke-linejoin="round"/>
<path d="M7 10.2082V3.7915" stroke="#9CA3AF" stroke-width="1.16667" stroke-linecap="round" stroke-linejoin="round"/>
</svg>
