<svg width="14" height="14" viewBox="0 0 14 14" fill="none" xmlns="http://www.w3.org/2000/svg">
<g clip-path="url(#clip0_2015_2782)">
<path d="M3.49996 10.5H2.33329C2.02387 10.5 1.72713 10.3771 1.50833 10.1583C1.28954 9.9395 1.16663 9.64275 1.16663 9.33333V6.41667C1.16663 6.10725 1.28954 5.8105 1.50833 5.59171C1.72713 5.37292 2.02387 5.25 2.33329 5.25H11.6666C11.976 5.25 12.2728 5.37292 12.4916 5.59171C12.7104 5.8105 12.8333 6.10725 12.8333 6.41667V9.33333C12.8333 9.64275 12.7104 9.9395 12.4916 10.1583C12.2728 10.3771 11.976 10.5 11.6666 10.5H10.5" stroke="black" stroke-width="1.16667" stroke-linecap="round" stroke-linejoin="round"/>
<path d="M3.5 5.24984V1.74984C3.5 1.59513 3.56146 1.44675 3.67085 1.33736C3.78025 1.22796 3.92862 1.1665 4.08333 1.1665H9.91667C10.0714 1.1665 10.2197 1.22796 10.3291 1.33736C10.4385 1.44675 10.5 1.59513 10.5 1.74984V5.24984" stroke="black" stroke-width="1.16667" stroke-linecap="round" stroke-linejoin="round"/>
<path d="M9.91667 8.1665H4.08333C3.76117 8.1665 3.5 8.42767 3.5 8.74984V12.2498C3.5 12.572 3.76117 12.8332 4.08333 12.8332H9.91667C10.2388 12.8332 10.5 12.572 10.5 12.2498V8.74984C10.5 8.42767 10.2388 8.1665 9.91667 8.1665Z" stroke="black" stroke-width="1.16667" stroke-linecap="round" stroke-linejoin="round"/>
</g>
<defs>
<clipPath id="clip0_2015_2782">
<rect width="14" height="14" fill="white"/>
</clipPath>
</defs>
</svg>
