<svg width="14" height="14" viewBox="0 0 14 14" fill="none" xmlns="http://www.w3.org/2000/svg">
<path d="M10.5 11.6665C10.5 10.7382 10.1313 9.84801 9.47487 9.19163C8.8185 8.53525 7.92826 8.1665 7 8.1665C6.07174 8.1665 5.1815 8.53525 4.52513 9.19163C3.86875 9.84801 3.5 10.7382 3.5 11.6665" stroke="#9CA3AF" stroke-width="1.16667" stroke-linecap="round" stroke-linejoin="round"/>
<path d="M7.00008 8.16667C8.28875 8.16667 9.33341 7.122 9.33341 5.83333C9.33341 4.54467 8.28875 3.5 7.00008 3.5C5.71142 3.5 4.66675 4.54467 4.66675 5.83333C4.66675 7.122 5.71142 8.16667 7.00008 8.16667Z" stroke="#9CA3AF" stroke-width="1.16667" stroke-linecap="round" stroke-linejoin="round"/>
<path d="M7.00008 12.8332C10.2217 12.8332 12.8334 10.2215 12.8334 6.99984C12.8334 3.77818 10.2217 1.1665 7.00008 1.1665C3.77842 1.1665 1.16675 3.77818 1.16675 6.99984C1.16675 10.2215 3.77842 12.8332 7.00008 12.8332Z" stroke="#9CA3AF" stroke-width="1.16667" stroke-linecap="round" stroke-linejoin="round"/>
</svg>
